<svg xmlns="http://www.w3.org/2000/svg" xmlns:xlink="http://www.w3.org/1999/xlink" width="500" zoomAndPan="magnify" viewBox="0 0 375 374.999991" height="500" preserveAspectRatio="xMidYMid meet" version="1.0"><defs><g/><clipPath id="9eb8f1cb2f"><path d="M 66.433594 253.789062 L 308.820312 253.789062 L 308.820312 273.640625 L 66.433594 273.640625 Z M 66.433594 253.789062 " clip-rule="nonzero"/></clipPath><clipPath id="55487893ab"><path d="M 154.695312 125.433594 L 220.695312 125.433594 L 220.695312 209.433594 L 154.695312 209.433594 Z M 154.695312 125.433594 " clip-rule="nonzero"/></clipPath><clipPath id="17cfa7c166"><path d="M 249.527344 52 L 317.027344 52 L 317.027344 121.617188 L 249.527344 121.617188 Z M 249.527344 52 " clip-rule="nonzero"/></clipPath></defs><g fill="#f3f6ef" fill-opacity="1"><g transform="translate(107.767841, 241.08368)"><g><path d="M 140.972656 -26.320312 L 126.472656 -37.917969 C 121.117188 -31.226562 114.875 -26.097656 107.289062 -22.527344 C 99.707031 -18.960938 91.898438 -17.175781 83.644531 -17.175781 C 73.832031 -17.175781 64.6875 -19.628906 56.210938 -24.535156 C 47.734375 -29.441406 41.265625 -36.359375 36.359375 -45.058594 C 31.449219 -53.53125 28.996094 -62.679688 28.996094 -72.714844 C 28.996094 -82.53125 31.449219 -91.898438 36.359375 -100.375 C 41.265625 -108.851562 47.957031 -115.765625 56.433594 -120.894531 C 64.6875 -125.804688 73.832031 -128.257812 83.644531 -128.257812 C 91.230469 -128.257812 98.589844 -126.472656 105.726562 -123.347656 C 112.867188 -120.226562 118.886719 -115.765625 124.242188 -110.1875 L 138.070312 -122.457031 C 131.15625 -130.042969 122.902344 -136.0625 113.535156 -140.300781 C 103.945312 -144.539062 93.90625 -146.769531 83.644531 -146.769531 C 70.261719 -146.769531 57.996094 -143.425781 46.839844 -136.957031 C 35.6875 -130.265625 26.765625 -121.34375 20.296875 -109.964844 C 13.605469 -98.367188 10.484375 -86.097656 10.484375 -72.714844 C 10.484375 -59.332031 13.605469 -46.839844 20.296875 -35.464844 C 26.765625 -24.089844 35.6875 -15.167969 47.066406 -8.699219 C 58.21875 -2.007812 70.261719 1.339844 83.644531 1.339844 C 94.796875 1.339844 105.503906 -0.890625 115.542969 -5.800781 C 125.355469 -10.484375 133.832031 -17.398438 140.972656 -26.320312 Z M 140.972656 -26.320312 "/></g></g></g><g clip-path="url(#9eb8f1cb2f)"><path fill="#9ad4d6" d="M 66.433594 253.789062 L 308.8125 253.789062 L 308.8125 273.640625 L 66.433594 273.640625 Z M 66.433594 253.789062 " fill-opacity="1" fill-rule="nonzero"/></g><g clip-path="url(#55487893ab)"><path fill="#21040b" d="M 220.507812 179.511719 C 220.285156 177.875 219.996094 176.113281 218.921875 174.78125 C 218.257812 173.878906 217.167969 173.179688 216.007812 173.246094 C 214.152344 172.9375 212.617188 174.664062 212.140625 176.320312 C 211.425781 179.050781 211.390625 181.921875 210.675781 184.671875 C 209.992188 187.539062 208.902344 190.476562 206.636719 192.472656 C 206.789062 190.167969 206.398438 187.710938 205.152344 185.710938 C 204.335938 184.414062 203.109375 183.421875 202.375 182.039062 C 200.671875 179.136719 201.082031 175.636719 201.355469 172.445312 C 202.921875 171.761719 204.269531 170.667969 205.5625 169.574219 C 207.285156 167.902344 208.9375 166.140625 210.335938 164.195312 C 211.765625 164.46875 212.992188 165.355469 214.21875 166.109375 C 214.75 166.363281 215.054688 165.679688 214.953125 165.238281 C 213.742188 164.265625 212.378906 163.511719 210.929688 163 C 211.542969 161.769531 212.3125 160.542969 212.398438 159.160156 C 213.929688 158.96875 215.480469 158.867188 217.03125 158.851562 C 217.558594 158.832031 217.816406 157.929688 217.203125 157.828125 C 215.632812 157.5 214.015625 157.792969 212.429688 157.964844 C 213.011719 157.175781 213.574219 156.050781 212.855469 155.164062 C 212.140625 154.460938 211.066406 154.222656 210.097656 154.273438 C 209.804688 152.226562 208.988281 150.277344 207.691406 148.65625 C 207.8125 148.433594 208.101562 144.113281 207.949219 142.203125 C 207.523438 138.121094 206.433594 134.140625 205.238281 130.230469 C 204.695312 128.761719 204.21875 127.207031 203.175781 125.996094 C 202.683594 125.46875 201.882812 125.433594 201.21875 125.636719 C 199.992188 126.046875 198.882812 126.78125 197.773438 127.464844 C 193.652344 130.316406 190.414062 134.226562 187.585938 138.324219 C 187.125 138.121094 186.648438 138 186.152344 138 C 184.296875 137.710938 182.402344 137.746094 180.546875 137.882812 C 178.910156 137.949219 177.292969 138.34375 175.808594 139.042969 C 175.535156 139.128906 175.265625 139.351562 174.992188 139.332031 C 173.578125 137.933594 172.195312 136.480469 170.664062 135.183594 C 168.703125 133.457031 166.691406 131.714844 164.339844 130.554688 C 163.371094 130.078125 162.3125 129.566406 161.207031 129.667969 C 160.285156 129.839844 159.84375 130.761719 159.433594 131.511719 C 158.683594 133.339844 158.582031 135.335938 158.445312 137.285156 C 157.882812 142.96875 158.71875 148.726562 160.269531 154.207031 C 160.675781 155.707031 161 157.261719 161.582031 158.714844 C 161.339844 159.703125 161.070312 160.679688 161.035156 161.703125 C 160.199219 161.703125 159.570312 162.417969 159.210938 163.101562 C 158.460938 164.453125 158.855469 166.140625 159.789062 167.285156 C 159.382812 167.269531 159.039062 167.558594 158.683594 167.730469 C 157.40625 168.34375 156.144531 169.0625 155.105469 170.054688 C 154.765625 170.292969 154.695312 170.992188 155.171875 171.09375 C 155.597656 171.128906 155.957031 170.820312 156.28125 170.582031 C 157.644531 169.644531 159.074219 168.773438 160.644531 168.226562 C 161.445312 168.996094 162.328125 169.660156 163.300781 170.222656 C 161.734375 171.949219 160.046875 173.84375 159.738281 176.269531 C 159.671875 176.628906 160.082031 176.933594 160.386719 176.695312 C 160.863281 176.21875 161.035156 175.550781 161.375 174.972656 C 162.089844 173.484375 163.183594 172.203125 164.203125 170.941406 C 166.417969 172.820312 168.804688 174.613281 171.550781 175.671875 C 172.058594 175.875 172.570312 176.21875 173.152344 176.199219 C 172.707031 178.453125 172.058594 180.675781 171.277344 182.84375 C 170.75 184.191406 169.792969 185.269531 168.941406 186.410156 C 167.085938 188.871094 166.710938 192.183594 167.238281 195.15625 C 167.648438 198.46875 168.667969 201.710938 170.269531 204.648438 C 171.054688 205.894531 171.976562 207.246094 173.457031 207.707031 C 175.503906 208.421875 177.90625 208.457031 179.882812 207.519531 C 180.410156 208.269531 181.3125 208.746094 182.199219 208.902344 C 182.507812 208.902344 182.8125 208.902344 183.136719 208.902344 C 184.246094 208.867188 185.234375 208.167969 185.589844 207.109375 C 185.589844 207.089844 185.589844 207.089844 185.589844 207.089844 L 185.761719 206.511719 C 185.777344 206.304688 185.777344 206.101562 185.777344 205.914062 C 186.359375 205.980469 187.226562 206.050781 188.027344 205.929688 C 188.027344 206.355469 188.042969 206.765625 188.113281 207.175781 C 188.128906 207.226562 188.128906 207.296875 188.148438 207.332031 C 188.148438 207.363281 188.164062 207.398438 188.164062 207.433594 C 188.300781 208.097656 188.792969 208.628906 189.441406 208.851562 C 190.90625 209.328125 192.5625 209.429688 193.90625 208.609375 C 194.402344 208.199219 194.945312 207.792969 195.253906 207.210938 C 195.679688 207.296875 196.105469 207.398438 196.53125 207.519531 C 197.28125 207.6875 198.046875 207.671875 198.796875 207.519531 C 200.519531 207.175781 202.019531 206.136719 203.039062 204.683594 C 203.363281 204.222656 203.65625 203.746094 203.875 203.25 C 204.695312 203.214844 205.511719 203.027344 206.3125 202.839844 C 208.050781 202.328125 209.839844 201.867188 211.339844 200.808594 C 213.386719 199.5625 215.019531 197.75 216.332031 195.769531 C 218.292969 192.695312 219.484375 189.195312 220.097656 185.609375 C 220.472656 183.628906 220.695312 181.5625 220.507812 179.511719 Z M 220.507812 179.511719 " fill-opacity="1" fill-rule="nonzero"/></g><path fill="#f3f6ef" d="M 218.769531 185.488281 C 218.617188 186.683594 218.207031 187.828125 217.917969 188.992188 C 217.609375 190.1875 217.183594 191.347656 216.640625 192.457031 C 215.566406 194.609375 214.320312 196.691406 212.464844 198.261719 C 210.335938 200.292969 207.453125 201.4375 204.558594 201.796875 C 205.445312 200.722656 205.597656 199.289062 206.023438 198.007812 C 206.328125 196.792969 206.550781 195.53125 206.585938 194.285156 C 207.199219 194.214844 207.609375 193.636719 207.898438 193.121094 C 209.738281 191.414062 210.742188 189.042969 211.460938 186.683594 C 211.851562 185.078125 212.34375 183.476562 212.566406 181.835938 C 213.128906 179.769531 212.617188 177.378906 213.929688 175.535156 C 214.457031 174.714844 215.480469 174.183594 216.453125 174.457031 C 217.664062 174.75 218.410156 175.910156 218.804688 177.003906 C 219.640625 179.769531 219.332031 182.707031 218.769531 185.488281 Z M 193.820312 156.800781 C 193.703125 157.246094 193.105469 157.417969 192.730469 157.175781 C 192.152344 156.871094 192.339844 155.878906 192.953125 155.726562 C 193.566406 155.488281 194.042969 156.289062 193.820312 156.800781 Z M 175.894531 158.046875 C 175.007812 158.390625 175.742188 159.945312 176.523438 159.5 C 177.191406 159.039062 176.746094 157.570312 175.894531 158.046875 Z M 211.886719 156.613281 C 211.648438 157.125 211.390625 157.636719 211.253906 158.203125 C 210.625 158.628906 209.753906 158.5625 209.109375 159.003906 C 208.664062 159.398438 209.191406 160.234375 209.722656 159.976562 C 210.179688 159.789062 210.710938 159.722656 211.101562 159.398438 C 210.742188 160.488281 210.351562 161.601562 209.789062 162.609375 C 208.75 162.265625 207.675781 162.042969 206.601562 161.820312 C 205.953125 161.652344 205.582031 162.726562 206.261719 162.933594 C 207.234375 163.289062 208.289062 163.425781 209.296875 163.5625 C 208.765625 164.246094 205.257812 168.191406 202.734375 170.191406 C 201.492188 171.164062 200.058594 171.878906 198.59375 172.496094 C 195.558594 173.777344 192.269531 174.765625 189 175.363281 C 187.296875 175.671875 185.574219 175.875 183.835938 175.960938 C 182.300781 176.046875 180.292969 175.6875 178.824219 176.199219 C 178.484375 176.285156 178.433594 176.832031 178.757812 176.984375 C 179.183594 177.277344 179.746094 177.226562 180.222656 177.257812 C 183.75 177.308594 187.296875 177.054688 190.753906 176.320312 C 193.617188 175.621094 196.429688 174.714844 199.136719 173.585938 C 199.480469 173.433594 199.855469 173.3125 200.09375 173.007812 C 200.09375 173.160156 199.734375 175.996094 199.855469 177.089844 C 199.871094 178.453125 200.210938 179.785156 200.519531 181.101562 C 201.0625 182.398438 201.761719 183.679688 202.785156 184.671875 C 204.402344 186.34375 205.339844 188.648438 205.375 190.972656 C 205.445312 192.011719 205.171875 193.039062 205.257812 194.078125 C 205.222656 196.164062 204.710938 198.210938 203.875 200.125 C 203.160156 201.882812 202.292969 203.625 201.0625 205.09375 C 201.03125 205.128906 201.011719 205.160156 200.980469 205.195312 C 200.261719 205.828125 199.921875 205.808594 199.921875 205.808594 C 198.695312 206.1875 197.195312 206.734375 196.070312 205.863281 C 196.410156 203.078125 196.921875 200.3125 197.398438 197.546875 C 197.828125 195.394531 198.421875 193.277344 198.816406 191.125 C 199.324219 188.820312 199.582031 186.464844 199.992188 184.140625 C 200.074219 183.746094 199.617188 183.269531 199.222656 183.527344 C 198.695312 183.917969 198.761719 184.617188 198.644531 185.183594 C 198.046875 188.359375 197.554688 191.570312 196.753906 194.710938 C 196.277344 197.222656 195.644531 199.714844 195.421875 202.277344 C 195.082031 203.710938 194.929688 205.246094 194.058594 206.476562 C 193.019531 208.148438 191.128906 207.808594 190.824219 207.757812 C 190.105469 207.621094 189.5625 207.039062 189.476562 206.324219 C 189.273438 204.75 189.339844 203.148438 189.476562 201.558594 C 189.59375 197.699219 190.242188 193.890625 190.464844 190.03125 C 190.5 189.535156 189.886719 189.261719 189.5625 189.621094 C 189.492188 189.707031 189.441406 189.808594 189.40625 189.929688 C 189.304688 191.601562 189.015625 193.242188 188.847656 194.898438 C 188.640625 197.578125 188.417969 200.261719 188.179688 202.925781 C 188.164062 203.488281 188.097656 204.070312 188.042969 204.648438 L 185.625 204.476562 C 185.488281 202.414062 184.976562 196.332031 185.046875 193.53125 C 185.148438 192.371094 185.113281 191.210938 185.128906 190.050781 C 185.148438 189.65625 185.25 189.246094 185.0625 188.871094 C 184.722656 188.632812 184.226562 188.820312 184.125 189.230469 C 184.089844 190.066406 183.9375 190.902344 183.9375 191.738281 C 183.921875 193.855469 183.699219 195.972656 183.9375 198.074219 C 184.039062 200.738281 184.636719 203.4375 184.3125 206.082031 C 184.226562 206.800781 183.683594 207.382812 182.964844 207.519531 L 182.949219 207.519531 C 182.558594 207.585938 182.148438 207.550781 181.773438 207.398438 L 181.414062 207.261719 C 179.898438 206.152344 179.40625 204.257812 178.535156 202.667969 C 175.773438 196.863281 175.214844 184.550781 175.367188 183.59375 C 175.570312 182.996094 174.515625 182.757812 174.359375 183.320312 C 174.242188 183.746094 174.257812 184.175781 174.222656 184.617188 C 174.34375 189.996094 175.027344 195.375 176.457031 200.585938 C 177.085938 202.632812 178.144531 204.496094 179.046875 206.425781 C 178.484375 206.664062 177.871094 206.75 177.292969 206.902344 C 175.878906 207.261719 173.867188 206.648438 173.867188 206.648438 C 172.230469 205.894531 171.191406 204.289062 170.542969 202.652344 C 169.589844 200.757812 169.09375 198.671875 168.53125 196.640625 C 168.074219 194.214844 167.867188 191.636719 168.652344 189.261719 C 169.230469 187.625 170.507812 186.410156 171.464844 185.011719 C 172.382812 183.339844 172.894531 181.492188 173.40625 179.667969 C 173.59375 178.589844 173.796875 177.53125 174.089844 176.492188 C 174.703125 176.679688 175.316406 176.867188 175.945312 176.882812 C 176.269531 176.902344 176.355469 176.542969 176.507812 176.335938 C 176.441406 176.148438 176.421875 175.875 176.203125 175.808594 C 175.554688 175.585938 174.839844 175.550781 174.207031 175.242188 C 172.417969 175.003906 170.800781 174.066406 169.214844 173.246094 C 167.730469 172.324219 166.351562 171.25 165.074219 170.054688 C 165.585938 169.625 166.386719 169.011719 166.0625 168.277344 C 165.226562 167.902344 164.714844 168.976562 164.121094 169.371094 C 163.164062 168.824219 162.246094 168.15625 161.476562 167.335938 C 161.785156 167.132812 162.089844 166.808594 162.039062 166.398438 C 161.902344 166.125 161.648438 165.765625 161.289062 165.902344 C 160.984375 166.039062 160.695312 166.226562 160.371094 166.347656 C 159.46875 165.238281 159.738281 163.480469 160.949219 162.710938 C 161.136719 162.710938 161.339844 162.746094 161.496094 162.847656 C 161.902344 162.675781 162.3125 162.351562 162.261719 161.839844 C 162.195312 160.695312 162.5 159.585938 162.671875 158.457031 C 162.703125 158.046875 162.433594 157.707031 162.3125 157.3125 C 161.359375 154.480469 160.660156 151.558594 160.03125 148.640625 C 159.621094 145.34375 159.195312 142.03125 159.433594 138.699219 C 159.570312 137.042969 159.6875 135.386719 159.894531 133.75 C 160.03125 132.722656 160.351562 131.664062 161.121094 130.949219 C 161.339844 130.710938 161.714844 130.828125 161.988281 130.878906 C 165.363281 131.972656 167.867188 134.433594 170.476562 136.550781 C 171.738281 137.675781 172.996094 138.785156 174.242188 139.929688 C 173.933594 140.289062 173.695312 140.714844 173.816406 141.210938 C 174.359375 141.621094 174.921875 141.144531 175.28125 140.734375 C 177.90625 139.109375 181.09375 138.957031 184.074219 139.027344 C 185.234375 139.144531 186.425781 139.195312 187.550781 139.539062 C 188.113281 139.707031 188.453125 139.179688 188.761719 138.820312 C 191.417969 135.421875 194.042969 131.90625 197.535156 129.324219 C 198.765625 128.320312 200.128906 127.464844 201.59375 126.882812 C 201.949219 126.695312 202.375 126.832031 202.613281 127.140625 C 203.550781 128.710938 204.03125 130.46875 204.609375 132.195312 C 205.714844 136.105469 206.773438 140.066406 206.890625 144.148438 C 206.875 145.15625 206.621094 148.84375 206.773438 149.117188 C 207.8125 150.535156 208.648438 152.976562 209.003906 154.734375 L 209.226562 155.605469 L 210.386719 155.605469 C 210.914062 155.589844 211.511719 155.488281 211.953125 155.863281 C 212.15625 156.050781 211.988281 156.375 211.886719 156.613281 Z M 170.765625 142.304688 C 170.40625 142.046875 169.828125 142.132812 169.539062 142.507812 C 168.6875 140.714844 168.515625 140.5625 167.800781 139.691406 C 166.964844 138.617188 166.011719 137.503906 164.816406 136.738281 C 164.390625 136.445312 163.828125 136.976562 164.136719 137.386719 C 164.238281 137.523438 164.359375 137.660156 164.460938 137.796875 C 166.027344 139.433594 166.777344 139.65625 168.582031 143.105469 C 164.066406 146.386719 164.972656 147.425781 165.125 147.460938 C 165.328125 147.511719 166.367188 145.546875 170.75 142.730469 C 170.882812 142.613281 170.902344 142.40625 170.765625 142.304688 Z M 178.65625 160.285156 C 178.554688 159.074219 178.195312 157.792969 177.273438 156.957031 C 176.796875 156.613281 176.167969 156.359375 175.570312 156.5625 C 175.007812 156.734375 174.652344 157.246094 174.515625 157.792969 C 174.121094 159.125 174.308594 160.574219 174.785156 161.875 C 175.128906 162.933594 176.335938 163.582031 177.410156 163.410156 C 178.519531 162.8125 178.773438 161.429688 178.65625 160.285156 Z M 190.875 164.109375 C 190.890625 163.820312 190.652344 163.425781 190.3125 163.53125 C 189.851562 163.613281 189.78125 164.160156 189.542969 164.46875 C 188.914062 165.492188 186.9375 165.082031 186.921875 163.835938 C 187.242188 162.984375 187.855469 162.027344 187.429688 161.105469 C 186.359375 160.371094 185.113281 161.140625 184.058594 161.53125 C 183.835938 162.574219 184.910156 163.1875 185.351562 163.972656 C 185.386719 164.980469 184.585938 165.972656 183.5625 165.988281 C 183.019531 166.058594 182.796875 165.253906 182.21875 165.390625 C 181.65625 165.648438 181.84375 166.519531 182.234375 166.84375 C 183.683594 167.816406 186.050781 166.773438 186.171875 165 C 186.5625 165.902344 187.617188 166.347656 188.574219 166.296875 C 189.765625 166.363281 190.941406 165.339844 190.875 164.109375 Z M 195.746094 158.59375 C 195.664062 157.433594 195.40625 156.253906 194.777344 155.265625 C 194.316406 154.582031 193.445312 154.105469 192.628906 154.394531 C 191.761719 154.632812 191.332031 155.554688 191.265625 156.375 C 191.164062 157.519531 191.214844 158.730469 191.675781 159.808594 C 191.945312 160.488281 192.355469 161.222656 193.070312 161.515625 C 193.667969 161.515625 194.382812 161.617188 194.859375 161.171875 C 195.644531 160.59375 195.796875 159.515625 195.746094 158.59375 Z M 195.371094 140 C 196.582031 136.308594 197.28125 135.953125 198.558594 134.074219 C 198.628906 133.917969 198.730469 133.765625 198.796875 133.613281 C 199.035156 133.167969 198.390625 132.742188 198.015625 133.101562 C 196.957031 134.054688 196.207031 135.320312 195.578125 136.515625 C 195.03125 137.488281 194.878906 137.675781 194.332031 139.589844 C 193.976562 139.265625 193.394531 139.28125 193.089844 139.589844 C 192.96875 139.707031 193.019531 139.914062 193.191406 139.980469 C 197.980469 142.03125 199.324219 143.789062 199.511719 143.703125 C 199.648438 143.652344 200.367188 142.492188 195.371094 140 Z M 193.820312 156.800781 C 193.703125 157.246094 193.105469 157.417969 192.730469 157.175781 C 192.152344 156.871094 192.339844 155.878906 192.953125 155.726562 C 193.566406 155.488281 194.042969 156.289062 193.820312 156.800781 Z M 175.894531 158.046875 C 175.007812 158.390625 175.742188 159.945312 176.523438 159.5 C 177.191406 159.039062 176.746094 157.570312 175.894531 158.046875 Z M 211.886719 156.613281 C 211.648438 157.125 211.390625 157.636719 211.253906 158.203125 C 210.625 158.628906 209.753906 158.5625 209.109375 159.003906 C 208.664062 159.398438 209.191406 160.234375 209.722656 159.976562 C 210.179688 159.789062 210.710938 159.722656 211.101562 159.398438 C 210.742188 160.488281 210.351562 161.601562 209.789062 162.609375 C 208.75 162.265625 207.675781 162.042969 206.601562 161.820312 C 205.953125 161.652344 205.582031 162.726562 206.261719 162.933594 C 207.234375 163.289062 208.289062 163.425781 209.296875 163.5625 C 208.765625 164.246094 205.257812 168.191406 202.734375 170.191406 C 201.492188 171.164062 200.058594 171.878906 198.59375 172.496094 C 195.558594 173.777344 192.269531 174.765625 189 175.363281 C 187.296875 175.671875 185.574219 175.875 183.835938 175.960938 C 182.300781 176.046875 180.292969 175.6875 178.824219 176.199219 C 178.484375 176.285156 178.433594 176.832031 178.757812 176.984375 C 179.183594 177.277344 179.746094 177.226562 180.222656 177.257812 C 183.75 177.308594 187.296875 177.054688 190.753906 176.320312 C 193.617188 175.621094 196.429688 174.714844 199.136719 173.585938 C 199.480469 173.433594 199.855469 173.3125 200.09375 173.007812 C 200.09375 173.160156 199.734375 175.996094 199.855469 177.089844 C 199.871094 178.453125 200.210938 179.785156 200.519531 181.101562 C 201.0625 182.398438 201.761719 183.679688 202.785156 184.671875 C 204.402344 186.34375 205.339844 188.648438 205.375 190.972656 C 205.445312 192.011719 205.171875 193.039062 205.257812 194.078125 C 205.222656 196.164062 204.710938 198.210938 203.875 200.125 C 203.160156 201.882812 202.292969 203.625 201.0625 205.09375 C 201.03125 205.128906 201.011719 205.160156 200.980469 205.195312 C 200.261719 205.828125 199.921875 205.808594 199.921875 205.808594 C 198.695312 206.1875 197.195312 206.734375 196.070312 205.863281 C 196.410156 203.078125 196.921875 200.3125 197.398438 197.546875 C 197.828125 195.394531 198.421875 193.277344 198.816406 191.125 C 199.324219 188.820312 199.582031 186.464844 199.992188 184.140625 C 200.074219 183.746094 199.617188 183.269531 199.222656 183.527344 C 198.695312 183.917969 198.761719 184.617188 198.644531 185.183594 C 198.046875 188.359375 197.554688 191.570312 196.753906 194.710938 C 196.277344 197.222656 195.644531 199.714844 195.421875 202.277344 C 195.082031 203.710938 194.929688 205.246094 194.058594 206.476562 C 193.019531 208.148438 191.128906 207.808594 190.824219 207.757812 C 190.105469 207.621094 189.5625 207.039062 189.476562 206.324219 C 189.273438 204.75 189.339844 203.148438 189.476562 201.558594 C 189.59375 197.699219 190.242188 193.890625 190.464844 190.03125 C 190.5 189.535156 189.886719 189.261719 189.5625 189.621094 C 189.492188 189.707031 189.441406 189.808594 189.40625 189.929688 C 189.304688 191.601562 189.015625 193.242188 188.847656 194.898438 C 188.640625 197.578125 188.417969 200.261719 188.179688 202.925781 C 188.164062 203.488281 188.097656 204.070312 188.042969 204.648438 L 185.625 204.476562 C 185.488281 202.414062 184.976562 196.332031 185.046875 193.53125 C 185.148438 192.371094 185.113281 191.210938 185.128906 190.050781 C 185.148438 189.65625 185.25 189.246094 185.0625 188.871094 C 184.722656 188.632812 184.226562 188.820312 184.125 189.230469 C 184.089844 190.066406 183.9375 190.902344 183.9375 191.738281 C 183.921875 193.855469 183.699219 195.972656 183.9375 198.074219 C 184.039062 200.738281 184.636719 203.4375 184.3125 206.082031 C 184.226562 206.800781 183.683594 207.382812 182.964844 207.519531 L 182.949219 207.519531 C 182.558594 207.585938 182.148438 207.550781 181.773438 207.398438 L 181.414062 207.261719 C 179.898438 206.152344 179.40625 204.257812 178.535156 202.667969 C 175.773438 196.863281 175.214844 184.550781 175.367188 183.59375 C 175.570312 182.996094 174.515625 182.757812 174.359375 183.320312 C 174.242188 183.746094 174.257812 184.175781 174.222656 184.617188 C 174.34375 189.996094 175.027344 195.375 176.457031 200.585938 C 177.085938 202.632812 178.144531 204.496094 179.046875 206.425781 C 178.484375 206.664062 177.871094 206.75 177.292969 206.902344 C 175.878906 207.261719 173.867188 206.648438 173.867188 206.648438 C 172.230469 205.894531 171.191406 204.289062 170.542969 202.652344 C 169.589844 200.757812 169.09375 198.671875 168.53125 196.640625 C 168.074219 194.214844 167.867188 191.636719 168.652344 189.261719 C 169.230469 187.625 170.507812 186.410156 171.464844 185.011719 C 172.382812 183.339844 172.894531 181.492188 173.40625 179.667969 C 173.59375 178.589844 173.796875 177.53125 174.089844 176.492188 C 174.703125 176.679688 175.316406 176.867188 175.945312 176.882812 C 176.269531 176.902344 176.355469 176.542969 176.507812 176.335938 C 176.441406 176.148438 176.421875 175.875 176.203125 175.808594 C 175.554688 175.585938 174.839844 175.550781 174.207031 175.242188 C 172.417969 175.003906 170.800781 174.066406 169.214844 173.246094 C 167.730469 172.324219 166.351562 171.25 165.074219 170.054688 C 165.585938 169.625 166.386719 169.011719 166.0625 168.277344 C 165.226562 167.902344 164.714844 168.976562 164.121094 169.371094 C 163.164062 168.824219 162.246094 168.15625 161.476562 167.335938 C 161.785156 167.132812 162.089844 166.808594 162.039062 166.398438 C 161.902344 166.125 161.648438 165.765625 161.289062 165.902344 C 160.984375 166.039062 160.695312 166.226562 160.371094 166.347656 C 159.46875 165.238281 159.738281 163.480469 160.949219 162.710938 C 161.136719 162.710938 161.339844 162.746094 161.496094 162.847656 C 161.902344 162.675781 162.3125 162.351562 162.261719 161.839844 C 162.195312 160.695312 162.5 159.585938 162.671875 158.457031 C 162.703125 158.046875 162.433594 157.707031 162.3125 157.3125 C 161.359375 154.480469 160.660156 151.558594 160.03125 148.640625 C 159.621094 145.34375 159.195312 142.03125 159.433594 138.699219 C 159.570312 137.042969 159.6875 135.386719 159.894531 133.75 C 160.03125 132.722656 160.351562 131.664062 161.121094 130.949219 C 161.339844 130.710938 161.714844 130.828125 161.988281 130.878906 C 165.363281 131.972656 167.867188 134.433594 170.476562 136.550781 C 171.738281 137.675781 172.996094 138.785156 174.242188 139.929688 C 173.933594 140.289062 173.695312 140.714844 173.816406 141.210938 C 174.359375 141.621094 174.921875 141.144531 175.28125 140.734375 C 177.90625 139.109375 181.09375 138.957031 184.074219 139.027344 C 185.234375 139.144531 186.425781 139.195312 187.550781 139.539062 C 188.113281 139.707031 188.453125 139.179688 188.761719 138.820312 C 191.417969 135.421875 194.042969 131.90625 197.535156 129.324219 C 198.765625 128.320312 200.128906 127.464844 201.59375 126.882812 C 201.949219 126.695312 202.375 126.832031 202.613281 127.140625 C 203.550781 128.710938 204.03125 130.46875 204.609375 132.195312 C 205.714844 136.105469 206.773438 140.066406 206.890625 144.148438 C 206.875 145.15625 206.621094 148.84375 206.773438 149.117188 C 207.8125 150.535156 208.648438 152.976562 209.003906 154.734375 L 209.226562 155.605469 L 210.386719 155.605469 C 210.914062 155.589844 211.511719 155.488281 211.953125 155.863281 C 212.15625 156.050781 211.988281 156.375 211.886719 156.613281 Z M 170.765625 142.304688 C 170.40625 142.046875 169.828125 142.132812 169.539062 142.507812 C 168.6875 140.714844 168.515625 140.5625 167.800781 139.691406 C 166.964844 138.617188 166.011719 137.503906 164.816406 136.738281 C 164.390625 136.445312 163.828125 136.976562 164.136719 137.386719 C 164.238281 137.523438 164.359375 137.660156 164.460938 137.796875 C 166.027344 139.433594 166.777344 139.65625 168.582031 143.105469 C 164.066406 146.386719 164.972656 147.425781 165.125 147.460938 C 165.328125 147.511719 166.367188 145.546875 170.75 142.730469 C 170.882812 142.613281 170.902344 142.40625 170.765625 142.304688 Z M 178.65625 160.285156 C 178.554688 159.074219 178.195312 157.792969 177.273438 156.957031 C 176.796875 156.613281 176.167969 156.359375 175.570312 156.5625 C 175.007812 156.734375 174.652344 157.246094 174.515625 157.792969 C 174.121094 159.125 174.308594 160.574219 174.785156 161.875 C 175.128906 162.933594 176.335938 163.582031 177.410156 163.410156 C 178.519531 162.8125 178.773438 161.429688 178.65625 160.285156 Z M 190.875 164.109375 C 190.890625 163.820312 190.652344 163.425781 190.3125 163.53125 C 189.851562 163.613281 189.78125 164.160156 189.542969 164.46875 C 188.914062 165.492188 186.9375 165.082031 186.921875 163.835938 C 187.242188 162.984375 187.855469 162.027344 187.429688 161.105469 C 186.359375 160.371094 185.113281 161.140625 184.058594 161.53125 C 183.835938 162.574219 184.910156 163.1875 185.351562 163.972656 C 185.386719 164.980469 184.585938 165.972656 183.5625 165.988281 C 183.019531 166.058594 182.796875 165.253906 182.21875 165.390625 C 181.65625 165.648438 181.84375 166.519531 182.234375 166.84375 C 183.683594 167.816406 186.050781 166.773438 186.171875 165 C 186.5625 165.902344 187.617188 166.347656 188.574219 166.296875 C 189.765625 166.363281 190.941406 165.339844 190.875 164.109375 Z M 195.746094 158.59375 C 195.664062 157.433594 195.40625 156.253906 194.777344 155.265625 C 194.316406 154.582031 193.445312 154.105469 192.628906 154.394531 C 191.761719 154.632812 191.332031 155.554688 191.265625 156.375 C 191.164062 157.519531 191.214844 158.730469 191.675781 159.808594 C 191.945312 160.488281 192.355469 161.222656 193.070312 161.515625 C 193.667969 161.515625 194.382812 161.617188 194.859375 161.171875 C 195.644531 160.59375 195.796875 159.515625 195.746094 158.59375 Z M 195.371094 140 C 196.582031 136.308594 197.28125 135.953125 198.558594 134.074219 C 198.628906 133.917969 198.730469 133.765625 198.796875 133.613281 C 199.035156 133.167969 198.390625 132.742188 198.015625 133.101562 C 196.957031 134.054688 196.207031 135.320312 195.578125 136.515625 C 195.03125 137.488281 194.878906 137.675781 194.332031 139.589844 C 193.976562 139.265625 193.394531 139.28125 193.089844 139.589844 C 192.96875 139.707031 193.019531 139.914062 193.191406 139.980469 C 197.980469 142.03125 199.324219 143.789062 199.511719 143.703125 C 199.648438 143.652344 200.367188 142.492188 195.371094 140 Z M 195.371094 140 " fill-opacity="1" fill-rule="nonzero"/><path fill="#cfc594" d="M 186.972656 179.019531 C 178.007812 179.90625 174.191406 176.507812 174.191406 176.507812 C 174.804688 176.695312 175.417969 176.882812 176.046875 176.902344 C 176.132812 176.902344 176.21875 176.882812 176.269531 176.832031 C 177.546875 177.019531 179.082031 177.226562 179.847656 177.242188 C 179.984375 177.242188 180.121094 177.257812 180.238281 177.257812 C 183.765625 177.308594 187.3125 177.054688 190.769531 176.320312 C 193.632812 175.621094 196.445312 174.714844 199.15625 173.585938 C 199.496094 173.433594 199.871094 173.3125 200.109375 173.007812 C 200.144531 173.007812 195.933594 178.113281 186.972656 179.019531 Z M 196.328125 204.394531 C 196.257812 204.886719 196.191406 205.382812 196.121094 205.878906 C 197.246094 206.75 198.765625 206.21875 199.972656 205.828125 C 199.972656 205.828125 200.3125 205.84375 201.03125 205.210938 C 201.0625 205.179688 201.097656 205.144531 201.117188 205.109375 C 202.34375 203.640625 203.195312 201.898438 203.925781 200.140625 C 204.746094 198.230469 205.257812 196.179688 205.308594 194.097656 C 205.222656 193.054688 205.496094 192.03125 205.425781 190.988281 C 202.070312 205.929688 196.410156 204.410156 196.328125 204.394531 Z M 173.933594 206.679688 C 173.933594 206.679688 175.945312 207.296875 177.359375 206.9375 C 177.957031 206.785156 178.554688 206.679688 179.117188 206.460938 C 178.84375 205.863281 178.554688 205.28125 178.261719 204.699219 C 178.261719 204.699219 175.910156 205.554688 173.578125 203.453125 C 171.242188 201.355469 168.277344 192.046875 168.242188 191.960938 C 168.140625 193.53125 168.328125 195.136719 168.617188 196.675781 C 169.179688 198.707031 169.675781 200.789062 170.628906 202.683594 C 171.277344 204.324219 172.300781 205.929688 173.933594 206.679688 Z M 195.371094 202.820312 C 195.371094 202.820312 193.992188 204.34375 192.066406 204.257812 C 190.125 204.171875 189.476562 202.480469 189.476562 202.480469 C 189.390625 203.777344 189.375 205.09375 189.542969 206.375 C 189.648438 207.089844 190.191406 207.671875 190.890625 207.808594 C 191.199219 207.859375 193.089844 208.199219 194.128906 206.527344 C 194.894531 205.433594 195.101562 204.101562 195.371094 202.820312 Z M 185.675781 204.511719 L 188.097656 204.683594 C 188.148438 204.238281 188.179688 203.796875 188.214844 203.351562 L 185.746094 203.351562 L 185.574219 203.265625 C 185.625 203.761719 185.660156 204.1875 185.675781 204.511719 Z M 181.84375 207.433594 C 182.21875 207.585938 182.625 207.621094 183.019531 207.550781 L 183.035156 207.550781 C 183.75 207.414062 184.296875 206.835938 184.382812 206.117188 C 184.515625 204.957031 184.484375 203.796875 184.382812 202.617188 C 184.382812 202.617188 183.902344 203.675781 181.859375 204 C 179.8125 204.324219 178.621094 202.683594 178.621094 202.683594 C 179.492188 204.273438 179.96875 206.167969 181.5 207.277344 Z M 204.558594 201.796875 C 207.453125 201.4375 210.335938 200.292969 212.464844 198.261719 C 214.320312 196.707031 215.566406 194.609375 216.640625 192.457031 C 217.183594 191.347656 217.628906 190.1875 217.917969 188.992188 C 218.207031 187.828125 218.597656 186.683594 218.769531 185.488281 C 219.058594 184.074219 219.28125 182.605469 219.316406 181.136719 C 219.195312 181.785156 217.320312 192.386719 212.039062 196.230469 C 206.585938 200.191406 206.570312 194.265625 206.570312 194.265625 C 206.550781 195.53125 206.328125 196.777344 206.007812 197.988281 C 205.597656 199.289062 205.425781 200.738281 204.558594 201.796875 Z M 204.558594 201.796875 " fill-opacity="1" fill-rule="nonzero"/><path fill="#dab185" d="M 209.210938 155.589844 L 208.988281 154.71875 C 208.628906 152.960938 207.796875 150.519531 206.757812 149.101562 C 206.601562 148.828125 206.859375 145.140625 206.875 144.132812 C 206.773438 140.050781 205.699219 136.089844 204.589844 132.179688 C 204.011719 130.46875 203.535156 128.695312 202.597656 127.125 C 202.359375 126.816406 201.933594 126.695312 201.574219 126.867188 C 200.09375 127.429688 198.730469 128.285156 197.519531 129.308594 C 194.027344 131.886719 191.402344 135.40625 188.742188 138.804688 C 188.4375 139.160156 188.097656 139.691406 187.535156 139.519531 C 186.410156 139.179688 185.214844 139.128906 184.058594 139.007812 C 181.058594 138.941406 177.871094 139.109375 175.265625 140.714844 C 175.265625 140.714844 185.828125 139.757812 187.175781 145.839844 C 188.523438 151.902344 184.363281 158.953125 193.019531 162.828125 C 201.675781 166.707031 209.875 161.308594 209.210938 155.589844 Z M 194.859375 161.207031 C 194.382812 161.652344 193.667969 161.550781 193.070312 161.550781 C 192.355469 161.242188 191.945312 160.523438 191.675781 159.839844 C 191.214844 158.765625 191.164062 157.570312 191.265625 156.410156 C 191.332031 155.570312 191.761719 154.648438 192.628906 154.429688 C 193.445312 154.136719 194.316406 154.617188 194.777344 155.300781 C 195.421875 156.273438 195.664062 157.46875 195.746094 158.628906 C 195.796875 159.515625 195.644531 160.59375 194.859375 161.207031 Z M 199.496094 143.722656 C 199.292969 143.808594 197.960938 142.046875 193.175781 140 C 193.003906 139.929688 192.953125 139.726562 193.070312 139.605469 C 193.378906 139.296875 193.976562 139.28125 194.316406 139.605469 C 194.859375 137.695312 195.015625 137.523438 195.558594 136.53125 C 196.191406 135.335938 196.941406 134.074219 197.996094 133.117188 C 198.371094 132.757812 199.019531 133.183594 198.78125 133.628906 C 198.695312 133.78125 198.609375 133.9375 198.542969 134.089844 C 197.28125 135.96875 196.566406 136.308594 195.355469 140.015625 C 200.367188 142.492188 199.648438 143.652344 199.496094 143.722656 Z M 212.550781 181.835938 C 212.839844 180.777344 212.839844 179.617188 212.957031 178.488281 C 213.386719 179.121094 214.167969 179.941406 215.308594 180.078125 C 217.167969 180.296875 217.492188 180.539062 217.167969 181.75 C 216.84375 182.980469 213.707031 183.082031 212.550781 181.835938 Z M 216.128906 186.683594 C 215.804688 187.898438 212.667969 188 211.511719 186.753906 C 211.492188 186.734375 211.476562 186.703125 211.460938 186.683594 C 211.699219 185.710938 211.96875 184.753906 212.191406 183.765625 C 212.652344 184.3125 213.332031 184.890625 214.269531 184.996094 C 216.128906 185.234375 216.453125 185.472656 216.128906 186.683594 Z M 216.128906 186.683594 " fill-opacity="1" fill-rule="nonzero"/><path fill="#e086bc" d="M 165.054688 146.554688 C 162.195312 143.226562 164.035156 137.027344 164.035156 137.027344 C 164.035156 137.027344 164.050781 137.027344 164.050781 137.027344 C 164.015625 137.128906 164.035156 137.265625 164.121094 137.367188 C 164.222656 137.503906 164.339844 137.640625 164.441406 137.777344 C 166.011719 139.417969 166.761719 139.640625 168.566406 143.089844 C 166.230469 144.78125 165.347656 145.890625 165.054688 146.554688 Z M 198.558594 134.074219 C 197.296875 135.953125 196.582031 136.292969 195.371094 140 C 199.070312 141.824219 199.632812 142.953125 199.617188 143.429688 C 201.8125 138.035156 198.796875 133.613281 198.796875 133.613281 C 198.730469 133.78125 198.628906 133.9375 198.558594 134.074219 Z M 198.558594 134.074219 " fill-opacity="1" fill-rule="nonzero"/><path fill="#ffffff" d="M 313.761719 86.183594 C 313.761719 87.171875 313.714844 88.15625 313.617188 89.140625 C 313.519531 90.125 313.375 91.101562 313.183594 92.070312 C 312.988281 93.042969 312.75 94 312.460938 94.945312 C 312.175781 95.890625 311.84375 96.820312 311.464844 97.734375 C 311.085938 98.648438 310.664062 99.539062 310.199219 100.414062 C 309.730469 101.285156 309.222656 102.132812 308.675781 102.953125 C 308.125 103.777344 307.539062 104.570312 306.910156 105.332031 C 306.28125 106.097656 305.621094 106.828125 304.921875 107.527344 C 304.222656 108.226562 303.488281 108.890625 302.726562 109.515625 C 301.960938 110.144531 301.167969 110.734375 300.347656 111.28125 C 299.523438 111.832031 298.675781 112.339844 297.804688 112.804688 C 296.933594 113.269531 296.042969 113.691406 295.128906 114.070312 C 294.214844 114.449219 293.285156 114.78125 292.339844 115.070312 C 291.390625 115.355469 290.433594 115.597656 289.464844 115.789062 C 288.496094 115.980469 287.519531 116.125 286.535156 116.222656 C 285.550781 116.320312 284.566406 116.367188 283.574219 116.367188 C 282.585938 116.367188 281.601562 116.320312 280.617188 116.222656 C 279.632812 116.125 278.65625 115.980469 277.6875 115.789062 C 276.71875 115.597656 275.757812 115.355469 274.8125 115.070312 C 273.867188 114.78125 272.9375 114.449219 272.023438 114.070312 C 271.109375 113.691406 270.21875 113.269531 269.347656 112.804688 C 268.472656 112.339844 267.628906 111.832031 266.804688 111.28125 C 265.984375 110.734375 265.191406 110.144531 264.425781 109.515625 C 263.660156 108.890625 262.929688 108.226562 262.230469 107.527344 C 261.53125 106.828125 260.867188 106.097656 260.242188 105.332031 C 259.613281 104.570312 259.027344 103.777344 258.476562 102.953125 C 257.929688 102.132812 257.421875 101.285156 256.953125 100.414062 C 256.488281 99.539062 256.066406 98.648438 255.6875 97.734375 C 255.308594 96.820312 254.976562 95.890625 254.691406 94.945312 C 254.402344 94 254.164062 93.042969 253.96875 92.070312 C 253.777344 91.101562 253.632812 90.125 253.535156 89.140625 C 253.4375 88.15625 253.390625 87.171875 253.390625 86.183594 C 253.390625 85.195312 253.4375 84.207031 253.535156 83.222656 C 253.632812 82.242188 253.777344 81.261719 253.96875 80.292969 C 254.164062 79.324219 254.402344 78.367188 254.691406 77.421875 C 254.976562 76.472656 255.308594 75.542969 255.6875 74.632812 C 256.066406 73.71875 256.488281 72.824219 256.953125 71.953125 C 257.421875 71.082031 257.929688 70.234375 258.476562 69.414062 C 259.027344 68.589844 259.613281 67.796875 260.242188 67.03125 C 260.867188 66.269531 261.53125 65.539062 262.230469 64.839844 C 262.929688 64.140625 263.660156 63.476562 264.425781 62.847656 C 265.191406 62.222656 265.984375 61.632812 266.804688 61.085938 C 267.628906 60.535156 268.472656 60.027344 269.347656 59.5625 C 270.21875 59.09375 271.109375 58.671875 272.023438 58.292969 C 272.9375 57.917969 273.867188 57.582031 274.8125 57.296875 C 275.757812 57.007812 276.71875 56.769531 277.6875 56.578125 C 278.65625 56.382812 279.632812 56.238281 280.617188 56.140625 C 281.601562 56.046875 282.585938 55.996094 283.574219 55.996094 C 284.566406 55.996094 285.550781 56.046875 286.535156 56.140625 C 287.519531 56.238281 288.496094 56.382812 289.464844 56.578125 C 290.433594 56.769531 291.390625 57.007812 292.339844 57.296875 C 293.285156 57.582031 294.214844 57.917969 295.128906 58.292969 C 296.042969 58.671875 296.933594 59.09375 297.804688 59.5625 C 298.675781 60.027344 299.523438 60.535156 300.347656 61.085938 C 301.167969 61.632812 301.960938 62.222656 302.726562 62.847656 C 303.488281 63.476562 304.222656 64.140625 304.921875 64.839844 C 305.621094 65.539062 306.28125 66.269531 306.910156 67.03125 C 307.539062 67.796875 308.125 68.589844 308.675781 69.414062 C 309.222656 70.234375 309.730469 71.082031 310.199219 71.953125 C 310.664062 72.824219 311.085938 73.71875 311.464844 74.632812 C 311.84375 75.542969 312.175781 76.472656 312.460938 77.421875 C 312.75 78.367188 312.988281 79.324219 313.183594 80.292969 C 313.375 81.261719 313.519531 82.242188 313.617188 83.222656 C 313.714844 84.207031 313.761719 85.195312 313.761719 86.183594 Z M 313.761719 86.183594 " fill-opacity="1" fill-rule="nonzero"/><g clip-path="url(#17cfa7c166)"><path fill="#9ad4d6" d="M 308.996094 64.566406 C 307.847656 63.226562 306.601562 61.984375 305.257812 60.839844 C 303.917969 59.695312 302.492188 58.664062 300.984375 57.742188 C 299.480469 56.824219 297.910156 56.027344 296.277344 55.355469 C 294.648438 54.683594 292.972656 54.140625 291.257812 53.734375 C 289.539062 53.324219 287.800781 53.050781 286.042969 52.917969 C 284.28125 52.78125 282.523438 52.785156 280.765625 52.929688 C 279.007812 53.070312 277.269531 53.351562 275.554688 53.765625 C 273.839844 54.183594 272.167969 54.730469 270.539062 55.410156 C 267.566406 56.660156 264.828125 58.300781 262.320312 60.328125 C 259.8125 62.359375 257.636719 64.695312 255.792969 67.339844 C 255.054688 68.394531 254.378906 69.488281 253.761719 70.617188 C 251.148438 75.445312 249.765625 80.605469 249.617188 86.09375 C 249.617188 86.421875 249.589844 86.753906 249.589844 87.089844 C 249.585938 88.042969 249.625 88.992188 249.699219 89.941406 C 249.773438 90.894531 249.890625 91.835938 250.046875 92.777344 C 250.199219 93.714844 250.394531 94.648438 250.625 95.570312 C 250.859375 96.496094 251.128906 97.40625 251.4375 98.308594 C 251.746094 99.210938 252.09375 100.09375 252.476562 100.96875 C 252.859375 101.839844 253.277344 102.695312 253.730469 103.53125 C 254.1875 104.367188 254.675781 105.183594 255.195312 105.980469 C 255.71875 106.777344 256.273438 107.550781 256.859375 108.300781 C 257.449219 109.050781 258.066406 109.773438 258.714844 110.472656 C 259.359375 111.171875 260.035156 111.839844 260.738281 112.484375 C 261.441406 113.125 262.171875 113.734375 262.925781 114.316406 C 263.679688 114.898438 264.457031 115.445312 265.257812 115.960938 C 266.058594 116.480469 266.878906 116.960938 267.722656 117.410156 C 268.5625 117.855469 269.417969 118.265625 270.292969 118.644531 C 271.167969 119.019531 272.058594 119.359375 272.960938 119.660156 C 273.867188 119.960938 274.78125 120.222656 275.703125 120.449219 C 278.257812 121.054688 280.847656 121.355469 283.472656 121.359375 C 302.183594 121.359375 317.351562 106.015625 317.351562 87.085938 C 317.355469 85.035156 317.179688 83 316.816406 80.984375 C 316.457031 78.964844 315.921875 76.996094 315.207031 75.070312 C 314.492188 73.148438 313.617188 71.304688 312.570312 69.542969 C 311.527344 67.777344 310.335938 66.117188 308.996094 64.566406 Z M 296.050781 90.664062 L 287.597656 90.664062 L 287.597656 99.363281 L 278.894531 99.363281 L 278.894531 90.664062 L 270.445312 90.664062 L 270.445312 82.160156 L 278.894531 82.160156 L 278.894531 73.460938 L 287.597656 73.460938 L 287.597656 82.160156 L 296.050781 82.160156 Z M 296.050781 90.664062 " fill-opacity="1" fill-rule="nonzero"/></g></svg>